<?xml version="1.0" standalone="no"?>
<!DOCTYPE svg PUBLIC "-//W3C//DTD SVG 20010904//EN"
 "http://www.w3.org/TR/2001/REC-SVG-20010904/DTD/svg10.dtd">
<svg version="1.0" xmlns="http://www.w3.org/2000/svg"
 width="512.000000pt" height="512.000000pt" viewBox="0 0 512.000000 512.000000"
 preserveAspectRatio="xMidYMid meet">
<metadata>
Created by potrace 1.14, written by Peter Selinger 2001-2017
</metadata>
<g transform="translate(0.000000,512.000000) scale(0.100000,-0.100000)"
fill="#000000" stroke="none">
<path d="M1515 4515 c-566 -327 -1030 -598 -1030 -602 0 -4 164 -102 365 -218
1231 -713 1703 -985 1710 -985 11 0 2051 1179 2068 1195 11 10 -5 23 -90 72
-56 33 -522 301 -1035 596 -513 295 -938 537 -945 537 -7 -1 -476 -268 -1043
-595z"/>
<path d="M302 2413 l3 -1208 915 -527 c503 -290 972 -561 1043 -602 l127 -74
0 1207 -1 1206 -996 575 c-548 316 -1018 587 -1045 603 l-48 27 2 -1207z"/>
<path d="M4100 3204 c-393 -227 -862 -498 -1042 -601 l-327 -188 -1 -1207 0
-1206 368 212 c202 117 666 385 1032 595 366 211 671 389 678 395 9 9 12 260
10 1212 l-3 1201 -715 -413z"/>
</g>
</svg>
